<svg xmlns="http://www.w3.org/2000/svg" viewBox="0 0 121 26" width="121" height="26">
	<style>
		tspan { white-space:pre }
		.shp0 { fill: #ffffff } 
	</style>
	<path id="appnest" class="shp0" d="M17.04 1.93L1.59 24.43L8.49 24.43L16.95 10.39L17.01 10.39L17.01 24.43L22.74 24.43L22.74 1.93L17.04 1.93L17.04 1.93ZM37.09 2.67C36.52 2.44 35.94 2.27 35.34 2.17C34.74 2.07 34.13 2.01 33.51 1.98C32.89 1.95 32.29 1.93 31.71 1.93L24.36 1.93L24.36 24.43L29.88 24.43L29.88 17.38L29.88 12.34L29.88 6.97L31.98 6.97C32.46 6.97 32.92 7 33.37 7.05C33.82 7.1 34.23 7.21 34.59 7.39C34.95 7.57 35.24 7.84 35.46 8.19C35.68 8.54 35.79 9.01 35.79 9.61C35.79 10.19 35.69 10.66 35.49 11.01C35.29 11.36 35.02 11.63 34.69 11.83C34.36 12.03 33.98 12.17 33.54 12.24C33.1 12.31 32.65 12.34 32.19 12.34L31.32 12.34L31.32 17.38L32.37 17.38C32.99 17.38 33.59 17.36 34.17 17.32C34.75 17.28 35.31 17.19 35.85 17.05C36.39 16.91 36.91 16.71 37.42 16.45C37.93 16.19 38.43 15.84 38.91 15.4C39.31 15.06 39.66 14.66 39.96 14.19C40.26 13.72 40.5 13.22 40.69 12.7C40.88 12.18 41.03 11.65 41.13 11.1C41.23 10.55 41.28 10.01 41.28 9.49C41.28 8.33 41.06 7.24 40.63 6.21C40.2 5.18 39.54 4.3 38.64 3.58C38.18 3.2 37.66 2.9 37.09 2.67ZM55.66 2.67C55.09 2.44 54.51 2.27 53.91 2.17C53.31 2.07 52.7 2.01 52.08 1.98C51.46 1.95 50.86 1.93 50.28 1.93L42.93 1.93L42.93 24.43L48.45 24.43L48.45 17.38L48.45 12.34L48.45 6.97L50.55 6.97C51.03 6.97 51.49 7 51.94 7.05C52.39 7.1 52.8 7.21 53.16 7.39C53.52 7.57 53.81 7.84 54.03 8.19C54.25 8.54 54.36 9.01 54.36 9.61C54.36 10.19 54.26 10.66 54.06 11.01C53.86 11.36 53.59 11.63 53.26 11.83C52.93 12.03 52.55 12.17 52.11 12.24C51.67 12.31 51.22 12.34 50.76 12.34L49.89 12.34L49.89 17.38L50.94 17.38C51.56 17.38 52.16 17.36 52.74 17.32C53.32 17.28 53.88 17.19 54.42 17.05C54.96 16.91 55.48 16.71 55.99 16.45C56.5 16.19 57 15.84 57.48 15.4C57.88 15.06 58.23 14.66 58.53 14.19C58.83 13.72 59.07 13.22 59.26 12.7C59.45 12.18 59.6 11.65 59.7 11.1C59.8 10.55 59.85 10.01 59.85 9.49C59.85 8.33 59.63 7.24 59.2 6.21C58.77 5.18 58.11 4.3 57.21 3.58C56.75 3.2 56.23 2.9 55.66 2.67ZM77.04 1.93L71.7 1.93L71.7 4L77.04 4L77.04 20.59L77.01 20.59L64.44 1.93L61.41 1.93L61.41 24.43L63.69 24.43L63.69 4.66L63.72 4.66L77.04 24.43L79.32 24.43L79.32 4L79.32 1.93L77.04 1.93L77.04 1.93L77.04 1.93ZM81.48 24.37L93.81 24.37L93.81 22.36L83.76 22.36L83.76 14.05L89.61 14.05L89.61 12.01L83.76 12.01L83.76 3.91L93.81 3.91L93.81 1.87L81.48 1.87L81.48 24.37L81.48 24.37ZM105.76 23.97C106.55 23.64 107.24 23.19 107.83 22.62C108.42 22.05 108.89 21.37 109.24 20.59C109.59 19.81 109.77 18.97 109.77 18.07C109.77 17.23 109.64 16.48 109.38 15.81C109.12 15.14 108.75 14.55 108.28 14.04C107.81 13.53 107.26 13.09 106.62 12.72C105.98 12.35 105.27 12.04 104.49 11.8C103.93 11.62 103.34 11.45 102.72 11.28C102.1 11.11 101.53 10.88 101.02 10.59C100.51 10.3 100.09 9.93 99.76 9.48C99.43 9.03 99.27 8.43 99.27 7.69C99.27 7.15 99.37 6.65 99.58 6.18C99.79 5.71 100.08 5.31 100.44 4.98C100.8 4.65 101.22 4.39 101.7 4.2C102.18 4.01 102.69 3.91 103.23 3.91C103.77 3.91 104.27 4.02 104.74 4.23C105.21 4.44 105.62 4.72 105.97 5.08C106.32 5.44 106.6 5.86 106.8 6.34C107 6.82 107.1 7.33 107.1 7.87L109.23 7.87C109.23 7.03 109.07 6.25 108.76 5.52C108.45 4.79 108.03 4.16 107.49 3.63C106.95 3.1 106.31 2.68 105.58 2.38C104.85 2.08 104.07 1.93 103.23 1.93C102.39 1.93 101.6 2.08 100.86 2.37C100.12 2.66 99.47 3.06 98.92 3.58C98.37 4.1 97.93 4.72 97.6 5.43C97.27 6.14 97.11 6.92 97.11 7.78C97.11 8.72 97.26 9.51 97.56 10.14C97.86 10.77 98.27 11.3 98.79 11.73C99.31 12.16 99.91 12.51 100.59 12.78C101.27 13.05 102 13.29 102.78 13.51C103.36 13.69 103.94 13.9 104.52 14.14C105.1 14.38 105.62 14.68 106.08 15.03C106.54 15.38 106.91 15.8 107.19 16.3C107.47 16.8 107.61 17.42 107.61 18.16C107.61 18.76 107.49 19.33 107.26 19.86C107.03 20.39 106.72 20.85 106.32 21.24C105.92 21.63 105.45 21.94 104.92 22.17C104.39 22.4 103.83 22.51 103.23 22.51C101.85 22.51 100.76 22.1 99.97 21.27C99.18 20.44 98.76 19.34 98.7 17.98L96.51 17.98C96.53 18.96 96.71 19.85 97.05 20.65C97.39 21.45 97.85 22.13 98.44 22.69C99.03 23.25 99.74 23.69 100.56 24C101.38 24.31 102.27 24.46 103.23 24.46C104.13 24.46 104.97 24.3 105.76 23.97ZM111.63 1.93L111.63 3.94L111.63 24.46L113.85 24.46L113.85 3.94L119.01 3.94L119.01 1.93L111.63 1.93L111.63 1.93Z" />
</svg>